# xmcd
#
# Track frame offsets: 
#        150
#        19502
#        33460
#        53207
#        74089
#        93438
#        110420
#        129283
#        151406
#        172553
#        195680
#        216540
#
# Disc length: 3181 seconds
#
# Revision: 0
# Processed by: cddbd v1.5.2PL0 Copyright (c) Steve Scherf et al.
# Submitted via: ExactAudioCopyFreeDBPlugin 1.0
#
DISCID=a10c6b0c
DTITLE=Wilson Meadows - Tighten Up
DYEAR=2014
DGENRE=Blues
TTITLE0=Can You Hang
TTITLE1=I Wanna See You
TTITLE2=I'm Gonna Tighten Up
TTITLE3=I Promise
TTITLE4=Still My Love
TTITLE5=She's Gone
TTITLE6=Sweet It Be
TTITLE7=Hold On
TTITLE8=Where Will This Leave Me
TTITLE9=Don't Take It Away
TTITLE10=Go On And Cry
TTITLE11=Let's Do That Thang
EXTD=
EXTT0=
EXTT1=
EXTT2=
EXTT3=
EXTT4=
EXTT5=
EXTT6=
EXTT7=
EXTT8=
EXTT9=
EXTT10=
EXTT11=
PLAYORDER=
